<svg width="24" height="24" viewBox="0 0 24 24" fill="none" xmlns="http://www.w3.org/2000/svg">
<path d="M12 22C6.485 22 2 17.514 2 12C2 6.486 6.485 2 12 2C17.514 2 22 6.486 22 12C22 17.514 17.514 22 12 22Z" fill="#E2E3E5"/>
<path d="M13.442 16.2201C13.251 16.2201 13.059 16.1471 12.913 16.0011L9.42603 12.5311C9.28503 12.3901 9.20603 12.1991 9.20603 11.9991C9.20603 11.8001 9.28503 11.6091 9.42603 11.4681L12.913 7.99609C13.206 7.70409 13.68 7.70409 13.973 7.99809C14.265 8.29209 14.264 8.76709 13.971 9.05909L11.018 11.9991L13.971 14.9391C14.264 15.2311 14.265 15.7051 13.973 15.9991C13.827 16.1471 13.634 16.2201 13.442 16.2201Z" fill="#200E32"/>
</svg>
